<svg width="25" height="25" viewBox="0 0 25 25" fill="none" xmlns="http://www.w3.org/2000/svg">
<rect width="24" height="24" transform="translate(0.5 0.5)" fill="white"/>
<path d="M13.5281 2.50073C14.6535 2.50259 15.2238 2.50855 15.7166 2.52322L15.9107 2.52956C16.1349 2.53753 16.3561 2.54753 16.6228 2.56003C17.6869 2.6092 18.4128 2.77753 19.0503 3.02503C19.7094 3.2792 20.2661 3.62253 20.8219 4.17837C21.3769 4.7342 21.7203 5.29253 21.9753 5.95003C22.2219 6.5867 22.3903 7.31337 22.4403 8.37753C22.4522 8.6442 22.4618 8.8654 22.4697 9.08964L22.476 9.28373C22.4906 9.77647 22.4973 10.3469 22.4994 11.4723L22.5002 12.2179C22.5003 12.309 22.5003 12.403 22.5003 12.5L22.5002 12.7821L22.4996 13.5278C22.4977 14.6532 22.4918 15.2236 22.4771 15.7163L22.4707 15.9104C22.4628 16.1347 22.4528 16.3559 22.4403 16.6225C22.3911 17.6867 22.2219 18.4125 21.9753 19.05C21.7211 19.7092 21.3769 20.2659 20.8219 20.8217C20.2661 21.3767 19.7069 21.72 19.0503 21.975C18.4128 22.2217 17.6869 22.39 16.6228 22.44C16.3561 22.4519 16.1349 22.4616 15.9107 22.4694L15.7166 22.4757C15.2238 22.4904 14.6535 22.497 13.5281 22.4992L12.7824 22.5C12.6913 22.5 12.5973 22.5 12.5003 22.5H12.2182L11.4725 22.4993C10.3471 22.4975 9.77672 22.4915 9.28397 22.4768L9.08989 22.4705C8.86564 22.4625 8.64444 22.4525 8.37778 22.44C7.31361 22.3909 6.58861 22.2217 5.95028 21.975C5.29194 21.7209 4.73444 21.3767 4.17861 20.8217C3.62278 20.2659 3.28028 19.7067 3.02528 19.05C2.77778 18.4125 2.61028 17.6867 2.56028 16.6225C2.5484 16.3559 2.53871 16.1347 2.53086 15.9104L2.52457 15.7163C2.50994 15.2236 2.50327 14.6532 2.50111 13.5278L2.50098 11.4723C2.50284 10.3469 2.50879 9.77647 2.52346 9.28373L2.52981 9.08964C2.53778 8.8654 2.54778 8.6442 2.56028 8.37753C2.60944 7.31253 2.77778 6.58753 3.02528 5.95003C3.27944 5.2917 3.62278 4.7342 4.17861 4.17837C4.73444 3.62253 5.29278 3.28003 5.95028 3.02503C6.58778 2.77753 7.31278 2.61003 8.37778 2.56003C8.64444 2.54816 8.86564 2.53847 9.08989 2.53062L9.28397 2.52433C9.77672 2.50969 10.3471 2.50302 11.4725 2.50086L13.5281 2.50073ZM12.5003 7.50003C9.73738 7.50003 7.50028 9.73956 7.50028 12.5C7.50028 15.2629 9.73981 17.5 12.5003 17.5C15.2632 17.5 17.5003 15.2605 17.5003 12.5C17.5003 9.73713 15.2607 7.50003 12.5003 7.50003ZM12.5003 9.50003C14.1572 9.50003 15.5003 10.8427 15.5003 12.5C15.5003 14.1569 14.1576 15.5 12.5003 15.5C10.8434 15.5 9.50028 14.1574 9.50028 12.5C9.50028 10.8431 10.8429 9.50003 12.5003 9.50003ZM17.7503 6.00003C17.061 6.00003 16.5003 6.55994 16.5003 7.24918C16.5003 7.93843 17.0602 8.4992 17.7503 8.4992C18.4395 8.4992 19.0003 7.9393 19.0003 7.24918C19.0003 6.55994 18.4386 5.99917 17.7503 6.00003Z" fill="black"/>
</svg>
