<svg width="25" height="25" viewBox="0 0 25 25" fill="none" xmlns="http://www.w3.org/2000/svg">
<rect width="24" height="24" transform="translate(0.5 0.5)" fill="white"/>
<path d="M22.7125 6.15605C21.9491 6.49375 21.1395 6.71555 20.3106 6.81411C21.1839 6.29132 21.8374 5.4689 22.1493 4.50005C21.3287 4.98761 20.4305 5.33077 19.4938 5.51461C18.7031 4.67106 17.598 4.19303 16.4418 4.19434C14.1326 4.19434 12.2597 6.06661 12.2597 8.37683C12.2597 8.70458 12.2973 9.02242 12.3676 9.32909C8.89048 9.15404 5.81008 7.49005 3.74678 4.95941C3.37529 5.59767 3.18006 6.32318 3.18105 7.06167C3.18105 8.51259 3.91961 9.79324 5.0415 10.543C4.37738 10.522 3.72789 10.3426 3.14719 10.0197C3.14655 10.0373 3.14654 10.0549 3.14654 10.0715C3.14654 12.0984 4.5882 13.7892 6.502 14.1731C6.14281 14.2703 5.77233 14.3194 5.40022 14.3191C5.12997 14.3191 4.86772 14.2942 4.6128 14.2453C5.14532 15.9065 6.68886 17.1159 8.5196 17.1491C7.03813 18.3118 5.20869 18.9426 3.32543 18.9399C2.99212 18.9402 2.65909 18.9205 2.32812 18.8811C4.24004 20.1102 6.46552 20.7625 8.73842 20.7601C16.4316 20.7601 20.638 14.3875 20.638 8.86111C20.638 8.6803 20.6336 8.49886 20.6256 8.31997C21.4443 7.72845 22.151 6.99567 22.7125 6.15605Z" fill="black"/>
</svg>
