<svg width="25" height="25" viewBox="0 0 25 25" fill="none" xmlns="http://www.w3.org/2000/svg">
<rect width="24" height="24" transform="translate(0.5 0.5)" fill="white"/>
<path d="M12.7439 4.5C13.278 4.50294 14.6143 4.51586 16.0341 4.57273L16.5375 4.59468C17.967 4.66236 19.3953 4.77798 20.1037 4.9755C21.0486 5.24095 21.7913 6.0155 22.0423 6.99732C22.442 8.55641 22.492 11.5994 22.4982 12.3358L22.4991 12.4884V12.4991C22.4991 12.4991 22.4991 12.5028 22.4991 12.5099L22.4982 12.6625C22.492 13.3989 22.442 16.4419 22.0423 18.001C21.7878 18.9864 21.0451 19.761 20.1037 20.0228C19.3953 20.2203 17.967 20.3359 16.5375 20.4036L16.0341 20.4255C14.6143 20.4824 13.278 20.4953 12.7439 20.4983L12.5095 20.4991H12.4991C12.4991 20.4991 12.4956 20.4991 12.4887 20.4991L12.2545 20.4983C11.1241 20.4921 6.39772 20.441 4.89451 20.0228C3.9496 19.7573 3.20692 18.9828 2.95587 18.001C2.5562 16.4419 2.50624 13.3989 2.5 12.6625V12.3358C2.50624 11.5994 2.5562 8.55641 2.95587 6.99732C3.2104 6.01186 3.95308 5.23732 4.89451 4.9755C6.39772 4.55723 11.1241 4.50622 12.2545 4.5H12.7439ZM10.4991 8.99914V15.9991L16.4991 12.4991L10.4991 8.99914Z" fill="black"/>
</svg>
