<svg width="126" height="41" viewBox="0 0 126 41" fill="none" xmlns="http://www.w3.org/2000/svg">
<g clip-path="url(#clip0_37_3)">
<path d="M89.3611 37.725C90.1201 37.725 90.5691 37.15 90.5691 36.251C90.5691 35.319 90.0871 34.777 89.3771 34.777C88.9711 34.777 88.6891 34.957 88.4781 35.243H88.4681V33.77H88.0281V37.643H88.4681V37.275H88.4781C88.7061 37.589 88.9821 37.725 89.3611 37.725ZM89.3291 37.356C88.7331 37.356 88.4401 36.885 88.4401 36.256C88.4401 35.65 88.7221 35.151 89.3341 35.151C89.8651 35.151 90.1201 35.628 90.1201 36.256C90.1201 36.89 89.8651 37.356 89.3291 37.356ZM91.3121 38.57C91.6531 38.57 91.8701 38.45 92.0971 37.87L93.2951 34.842H92.8291L92.1891 36.587C92.1031 36.82 92.0051 37.134 92.0051 37.134H91.9951C91.9951 37.134 91.8911 36.82 91.8051 36.587L91.1441 34.842H90.6671L91.7611 37.562L91.6531 37.838C91.5451 38.109 91.4201 38.18 91.2361 38.18C91.1333 38.1852 91.0308 38.1646 90.9381 38.12H90.9161V38.51C91.0361 38.559 91.1441 38.57 91.3121 38.57ZM94.4181 37.643H95.1551V33.77H94.4181V37.643ZM96.9571 37.725C97.8181 37.725 98.4091 37.085 98.4091 36.256C98.4091 35.427 97.8191 34.788 96.9571 34.788C96.0961 34.788 95.5051 35.428 95.5051 36.256C95.5051 37.086 96.0951 37.725 96.9571 37.725ZM96.9571 37.161C96.5021 37.161 96.2531 36.798 96.2531 36.256C96.2531 35.715 96.5021 35.346 96.9571 35.346C97.4071 35.346 97.6611 35.715 97.6611 36.256C97.6611 36.798 97.4071 37.161 96.9571 37.161ZM99.9761 38.591C100.388 38.591 100.745 38.494 100.978 38.277C101.184 38.087 101.309 37.822 101.309 37.432V34.864H100.599V35.157H100.588C100.42 34.924 100.166 34.788 99.8181 34.788C99.1151 34.788 98.6161 35.319 98.6161 36.148C98.6161 36.988 99.2231 37.475 99.8411 37.475C100.193 37.475 100.404 37.335 100.566 37.15H100.583V37.454C100.583 37.833 100.383 38.034 99.9651 38.034C99.6241 38.034 99.4671 37.898 99.4071 37.724H98.6761C98.7511 38.266 99.2171 38.591 99.9761 38.591ZM99.9661 36.885C99.5861 36.885 99.3361 36.609 99.3361 36.137C99.3361 35.671 99.5861 35.379 99.9601 35.379C100.404 35.379 100.621 35.725 100.621 36.132C100.621 36.544 100.431 36.885 99.9651 36.885H99.9661ZM103.1 37.725C103.961 37.725 104.552 37.085 104.552 36.256C104.552 35.427 103.961 34.788 103.1 34.788C102.238 34.788 101.648 35.428 101.648 36.256C101.648 37.086 102.238 37.725 103.1 37.725ZM103.1 37.161C102.645 37.161 102.395 36.798 102.395 36.256C102.395 35.715 102.645 35.346 103.1 35.346C103.549 35.346 103.804 35.715 103.804 36.256C103.804 36.798 103.549 37.161 103.1 37.161ZM104.894 37.643H105.631V34.864H104.894V37.643ZM104.894 34.431H105.631V33.77H104.894V34.431ZM106.106 38.553H106.843V37.33H106.853C107.011 37.569 107.265 37.726 107.655 37.726C108.37 37.726 108.858 37.156 108.858 36.257C108.858 35.39 108.387 34.789 107.65 34.789C107.489 34.7864 107.331 34.8237 107.188 34.8975C107.045 34.9713 106.923 35.0794 106.832 35.212H106.816V34.865H106.106V38.555V38.553ZM107.498 37.113C107.059 37.113 106.826 36.782 106.826 36.278C106.826 35.78 107.011 35.384 107.471 35.384C107.926 35.384 108.11 35.752 108.11 36.278C108.11 36.804 107.872 37.113 107.498 37.113ZM110.328 37.725C111.021 37.725 111.498 37.389 111.498 36.831C111.498 36.181 110.983 36.051 110.517 35.953C110.122 35.872 109.754 35.85 109.754 35.612C109.754 35.412 109.943 35.302 110.23 35.302C110.545 35.302 110.734 35.412 110.767 35.709H111.433C111.379 35.151 110.973 34.789 110.241 34.789C109.607 34.789 109.109 35.075 109.109 35.677C109.109 36.283 109.596 36.419 110.095 36.517C110.474 36.592 110.826 36.619 110.826 36.885C110.826 37.08 110.642 37.205 110.317 37.205C109.987 37.205 109.759 37.064 109.71 36.744H109.028C109.071 37.334 109.521 37.725 110.328 37.725ZM114.296 37.643V34.864H113.559V36.468C113.559 36.836 113.347 37.096 113.001 37.096C112.687 37.096 112.54 36.917 112.54 36.592V34.864H111.809V36.717C111.809 37.324 112.156 37.719 112.773 37.719C113.163 37.719 113.38 37.573 113.57 37.319H113.586V37.643H114.296ZM114.772 37.643H115.509V36.03C115.509 35.661 115.709 35.423 116.007 35.423C116.278 35.423 116.435 35.586 116.435 35.9V37.644H117.172V36.03C117.172 35.661 117.362 35.423 117.671 35.423C117.942 35.423 118.099 35.586 118.099 35.9V37.644H118.836V35.775C118.836 35.168 118.505 34.789 117.92 34.789C117.568 34.789 117.275 34.973 117.086 35.277H117.075C117.008 35.1294 116.9 35.0046 116.763 34.9178C116.626 34.8311 116.467 34.7863 116.305 34.789C116.143 34.7849 115.982 34.8245 115.84 34.9037C115.698 34.9828 115.58 35.0987 115.498 35.239H115.482V34.865H114.772V37.645V37.643Z" fill="#E5708C"/>
<path d="M118.981 2.649C118.981 1.466 119.94 0.506 121.123 0.506H122.552C123.12 0.506 123.666 0.731779 124.067 1.13367C124.469 1.53556 124.695 2.08064 124.695 2.649C124.695 3.21736 124.469 3.76244 124.067 4.16433C123.666 4.56622 123.12 4.792 122.552 4.792H121.123C120.842 4.792 120.563 4.73656 120.303 4.62885C120.043 4.52115 119.807 4.36328 119.608 4.16427C119.409 3.96526 119.251 3.72901 119.144 3.46901C119.036 3.20902 118.981 2.93038 118.981 2.649ZM58.9901 14.79C58.9901 22.678 52.5961 29.073 44.7071 29.073C36.8191 29.073 30.4241 22.678 30.4241 14.79C30.4241 6.9 36.8191 0.507 44.7071 0.507C52.5961 0.507 58.9901 6.9 58.9901 14.79ZM27.6381 14.719C28.4281 14.719 29.0741 15.359 28.9951 16.145C28.7251 18.8348 27.6973 21.3928 26.0312 23.5216C24.365 25.6505 22.1289 27.2628 19.5828 28.1711C17.0366 29.0795 14.285 29.2466 11.6476 28.6531C9.01022 28.0596 6.59543 26.7297 4.68388 24.8182C2.77234 22.9067 1.44252 20.4919 0.848993 17.8545C0.255463 15.2171 0.422589 12.4655 1.33095 9.9193C2.23931 7.37315 3.8516 5.13706 5.98045 3.47091C8.10929 1.80476 10.6673 0.776974 13.3571 0.507C14.1421 0.427 14.7831 1.075 14.7831 1.863V13.29C14.7831 14.08 15.4231 14.719 16.2121 14.719H27.6381ZM78.9871 31.93C80.1235 31.93 81.2134 32.3815 82.017 33.185C82.8206 33.9886 83.2721 35.0785 83.2721 36.215C83.2721 37.3515 82.8206 38.4414 82.017 39.245C81.2134 40.0485 80.1235 40.5 78.9871 40.5H71.8461C70.7096 40.5 69.6197 40.0485 68.8161 39.245C68.0125 38.4414 67.5611 37.3515 67.5611 36.215C67.5611 35.0785 68.0125 33.9886 68.8161 33.185C69.6197 32.3815 70.7096 31.93 71.8461 31.93H78.9871ZM74.7021 29.073C82.5911 29.073 88.9861 22.678 88.9861 14.79C88.9895 12.3669 88.3737 9.98321 87.1971 7.865L89.5571 5.505C89.8289 5.23303 90.0445 4.91018 90.1916 4.55489C90.3387 4.1996 90.4143 3.81882 90.4142 3.43429C90.4141 3.04976 90.3383 2.66902 90.1911 2.3138C90.0438 1.95858 89.828 1.63584 89.5561 1.364C89.2841 1.09216 88.9613 0.876557 88.606 0.72949C88.2507 0.582424 87.8699 0.506777 87.4854 0.50687C87.1008 0.506963 86.7201 0.582793 86.3649 0.730031C86.0097 0.87727 85.6869 1.09303 85.4151 1.365L83.3551 3.425C80.8699 1.52691 77.8282 0.500968 74.7011 0.506C66.8141 0.507 60.4201 6.9 60.4201 14.79C60.4201 22.678 66.8141 29.073 74.7021 29.073ZM118.981 14.79C118.981 22.678 112.586 29.073 104.697 29.073C96.8091 29.073 90.4141 22.678 90.4141 14.79C90.4141 6.9 96.8091 0.507 104.697 0.507C112.586 0.507 118.981 6.901 118.981 14.79Z" fill="url(#paint0_linear_37_3)"/>
</g>
<defs>
<linearGradient id="paint0_linear_37_3" x1="0.500087" y1="16.5" x2="119.5" y2="16.5" gradientUnits="userSpaceOnUse">
<stop stop-color="#64C2DB"/>
<stop offset="0.307" stop-color="#7476ED"/>
<stop offset="0.604" stop-color="#C994DF"/>
<stop offset="1" stop-color="#E56F8C"/>
</linearGradient>
<clipPath id="clip0_37_3">
<rect width="125" height="40" fill="white" transform="translate(0.5 0.5)"/>
</clipPath>
</defs>
</svg>
